<svg width="160" height="48" viewBox="0 0 160 48" fill="none" xmlns="http://www.w3.org/2000/svg">
<rect width="160" height="48" rx="8" fill="white"/>
<path d="M56.557 15.28H57.979C58.075 15.28 58.195 15.274 58.339 15.262C58.483 15.244 58.636 15.208 58.798 15.154C58.96 15.094 59.119 15.01 59.275 14.902C59.437 14.794 59.581 14.647 59.707 14.461C59.833 14.275 59.935 14.044 60.013 13.768C60.097 13.486 60.139 13.147 60.139 12.751C60.139 12.367 60.1 12.025 60.022 11.725C59.95 11.419 59.827 11.161 59.653 10.951C59.485 10.735 59.266 10.573 58.996 10.465C58.726 10.351 58.393 10.294 57.997 10.294H56.557V15.28ZM55.702 9.574H57.907C58.897 9.574 59.659 9.826 60.193 10.33C60.727 10.834 60.994 11.602 60.994 12.634C60.994 13.174 60.934 13.654 60.814 14.074C60.694 14.488 60.508 14.839 60.256 15.127C60.004 15.409 59.683 15.625 59.293 15.775C58.903 15.925 58.441 16 57.907 16H55.702V9.574ZM62.4709 13.678C62.4709 13.96 62.5069 14.212 62.5789 14.434C62.6569 14.65 62.7619 14.833 62.8939 14.983C63.0259 15.127 63.1789 15.238 63.3529 15.316C63.5329 15.394 63.7219 15.433 63.9199 15.433C64.1179 15.433 64.3039 15.394 64.4779 15.316C64.6579 15.238 64.8139 15.127 64.9459 14.983C65.0779 14.833 65.1799 14.65 65.2519 14.434C65.3299 14.212 65.3689 13.96 65.3689 13.678C65.3689 13.396 65.3299 13.147 65.2519 12.931C65.1799 12.709 65.0779 12.523 64.9459 12.373C64.8139 12.223 64.6579 12.109 64.4779 12.031C64.3039 11.953 64.1179 11.914 63.9199 11.914C63.7219 11.914 63.5329 11.953 63.3529 12.031C63.1789 12.109 63.0259 12.223 62.8939 12.373C62.7619 12.523 62.6569 12.709 62.5789 12.931C62.5069 13.147 62.4709 13.396 62.4709 13.678ZM61.6609 13.678C61.6609 13.336 61.7089 13.018 61.8049 12.724C61.9009 12.424 62.0449 12.166 62.2369 11.95C62.4289 11.728 62.6659 11.554 62.9479 11.428C63.2299 11.302 63.5539 11.239 63.9199 11.239C64.2919 11.239 64.6159 11.302 64.8919 11.428C65.1739 11.554 65.4109 11.728 65.6029 11.95C65.7949 12.166 65.9389 12.424 66.0349 12.724C66.1309 13.018 66.1789 13.336 66.1789 13.678C66.1789 14.02 66.1309 14.338 66.0349 14.632C65.9389 14.926 65.7949 15.184 65.6029 15.406C65.4109 15.622 65.1739 15.793 64.8919 15.919C64.6159 16.039 64.2919 16.099 63.9199 16.099C63.5539 16.099 63.2299 16.039 62.9479 15.919C62.6659 15.793 62.4289 15.622 62.2369 15.406C62.0449 15.184 61.9009 14.926 61.8049 14.632C61.7089 14.338 61.6609 14.02 61.6609 13.678ZM71.6889 16H70.8789L69.9339 12.301H69.9159L68.9799 16H68.1519L66.6579 11.347H67.5039L68.5569 15.154H68.5749L69.5109 11.347H70.3479L71.3199 15.154H71.3379L72.3819 11.347H73.1739L71.6889 16ZM73.9012 11.347H74.6212V12.085H74.6392C74.9572 11.521 75.4612 11.239 76.1512 11.239C76.4572 11.239 76.7122 11.281 76.9162 11.365C77.1202 11.449 77.2852 11.566 77.4112 11.716C77.5372 11.866 77.6242 12.046 77.6722 12.256C77.7262 12.46 77.7532 12.688 77.7532 12.94V16H76.9882V12.85C76.9882 12.562 76.9042 12.334 76.7362 12.166C76.5682 11.998 76.3372 11.914 76.0432 11.914C75.8092 11.914 75.6052 11.95 75.4312 12.022C75.2632 12.094 75.1222 12.196 75.0082 12.328C74.8942 12.46 74.8072 12.616 74.7472 12.796C74.6932 12.97 74.6662 13.162 74.6662 13.372V16H73.9012V11.347ZM78.9472 9.574H79.7122V16H78.9472V9.574ZM81.4553 13.678C81.4553 13.96 81.4913 14.212 81.5633 14.434C81.6413 14.65 81.7463 14.833 81.8783 14.983C82.0103 15.127 82.1633 15.238 82.3373 15.316C82.5173 15.394 82.7063 15.433 82.9043 15.433C83.1023 15.433 83.2883 15.394 83.4623 15.316C83.6423 15.238 83.7983 15.127 83.9303 14.983C84.0623 14.833 84.1643 14.65 84.2363 14.434C84.3143 14.212 84.3533 13.96 84.3533 13.678C84.3533 13.396 84.3143 13.147 84.2363 12.931C84.1643 12.709 84.0623 12.523 83.9303 12.373C83.7983 12.223 83.6423 12.109 83.4623 12.031C83.2883 11.953 83.1023 11.914 82.9043 11.914C82.7063 11.914 82.5173 11.953 82.3373 12.031C82.1633 12.109 82.0103 12.223 81.8783 12.373C81.7463 12.523 81.6413 12.709 81.5633 12.931C81.4913 13.147 81.4553 13.396 81.4553 13.678ZM80.6453 13.678C80.6453 13.336 80.6933 13.018 80.7893 12.724C80.8853 12.424 81.0293 12.166 81.2213 11.95C81.4133 11.728 81.6503 11.554 81.9323 11.428C82.2143 11.302 82.5383 11.239 82.9043 11.239C83.2763 11.239 83.6003 11.302 83.8763 11.428C84.1583 11.554 84.3953 11.728 84.5873 11.95C84.7793 12.166 84.9233 12.424 85.0193 12.724C85.1153 13.018 85.1633 13.336 85.1633 13.678C85.1633 14.02 85.1153 14.338 85.0193 14.632C84.9233 14.926 84.7793 15.184 84.5873 15.406C84.3953 15.622 84.1583 15.793 83.8763 15.919C83.6003 16.039 83.2763 16.099 82.9043 16.099C82.5383 16.099 82.2143 16.039 81.9323 15.919C81.6503 15.793 81.4133 15.622 81.2213 15.406C81.0293 15.184 80.8853 14.926 80.7893 14.632C80.6933 14.338 80.6453 14.02 80.6453 13.678ZM90.1873 15.982C90.0553 16.06 89.8723 16.099 89.6383 16.099C89.4403 16.099 89.2813 16.045 89.1613 15.937C89.0473 15.823 88.9903 15.64 88.9903 15.388C88.7803 15.64 88.5343 15.823 88.2523 15.937C87.9763 16.045 87.6763 16.099 87.3523 16.099C87.1423 16.099 86.9413 16.075 86.7493 16.027C86.5633 15.979 86.4013 15.904 86.2633 15.802C86.1253 15.7 86.0143 15.568 85.9303 15.406C85.8523 15.238 85.8133 15.037 85.8133 14.803C85.8133 14.539 85.8583 14.323 85.9483 14.155C86.0383 13.987 86.1553 13.852 86.2993 13.75C86.4493 13.642 86.6173 13.561 86.8033 13.507C86.9953 13.453 87.1903 13.408 87.3883 13.372C87.5983 13.33 87.7963 13.3 87.9823 13.282C88.1743 13.258 88.3423 13.228 88.4863 13.192C88.6303 13.15 88.7443 13.093 88.8283 13.021C88.9123 12.943 88.9543 12.832 88.9543 12.688C88.9543 12.52 88.9213 12.385 88.8553 12.283C88.7953 12.181 88.7143 12.103 88.6123 12.049C88.5163 11.995 88.4053 11.959 88.2793 11.941C88.1593 11.923 88.0393 11.914 87.9193 11.914C87.5953 11.914 87.3253 11.977 87.1093 12.103C86.8933 12.223 86.7763 12.454 86.7583 12.796H85.9933C86.0053 12.508 86.0653 12.265 86.1733 12.067C86.2813 11.869 86.4253 11.71 86.6053 11.59C86.7853 11.464 86.9893 11.374 87.2173 11.32C87.4513 11.266 87.7003 11.239 87.9643 11.239C88.1743 11.239 88.3813 11.254 88.5853 11.284C88.7953 11.314 88.9843 11.377 89.1523 11.473C89.3203 11.563 89.4553 11.692 89.5573 11.86C89.6593 12.028 89.7103 12.247 89.7103 12.517V14.911C89.7103 15.091 89.7193 15.223 89.7373 15.307C89.7613 15.391 89.8333 15.433 89.9533 15.433C90.0193 15.433 90.0973 15.418 90.1873 15.388V15.982ZM88.9453 13.597C88.8493 13.669 88.7233 13.723 88.5673 13.759C88.4113 13.789 88.2463 13.816 88.0723 13.84C87.9043 13.858 87.7333 13.882 87.5593 13.912C87.3853 13.936 87.2293 13.978 87.0913 14.038C86.9533 14.098 86.8393 14.185 86.7493 14.299C86.6653 14.407 86.6233 14.557 86.6233 14.749C86.6233 14.875 86.6473 14.983 86.6953 15.073C86.7493 15.157 86.8153 15.226 86.8933 15.28C86.9773 15.334 87.0733 15.373 87.1813 15.397C87.2893 15.421 87.4033 15.433 87.5233 15.433C87.7753 15.433 87.9913 15.4 88.1713 15.334C88.3513 15.262 88.4983 15.175 88.6123 15.073C88.7263 14.965 88.8103 14.851 88.8643 14.731C88.9183 14.605 88.9453 14.488 88.9453 14.38V13.597ZM91.4572 13.714C91.4572 13.93 91.4842 14.143 91.5382 14.353C91.5982 14.557 91.6852 14.74 91.7992 14.902C91.9192 15.064 92.0692 15.193 92.2492 15.289C92.4352 15.385 92.6512 15.433 92.8972 15.433C93.1552 15.433 93.3742 15.382 93.5542 15.28C93.7342 15.178 93.8812 15.046 93.9952 14.884C94.1092 14.716 94.1902 14.527 94.2382 14.317C94.2922 14.107 94.3192 13.894 94.3192 13.678C94.3192 13.45 94.2922 13.231 94.2382 13.021C94.1842 12.805 94.0972 12.616 93.9772 12.454C93.8632 12.292 93.7132 12.163 93.5272 12.067C93.3412 11.965 93.1162 11.914 92.8522 11.914C92.5942 11.914 92.3752 11.965 92.1952 12.067C92.0152 12.169 91.8712 12.304 91.7632 12.472C91.6552 12.64 91.5772 12.832 91.5292 13.048C91.4812 13.264 91.4572 13.486 91.4572 13.714ZM95.0572 16H94.2922V15.37H94.2742C94.1482 15.628 93.9502 15.814 93.6802 15.928C93.4102 16.042 93.1132 16.099 92.7892 16.099C92.4292 16.099 92.1142 16.033 91.8442 15.901C91.5802 15.769 91.3582 15.592 91.1782 15.37C91.0042 15.148 90.8722 14.89 90.7822 14.596C90.6922 14.302 90.6472 13.99 90.6472 13.66C90.6472 13.33 90.6892 13.018 90.7732 12.724C90.8632 12.43 90.9952 12.175 91.1692 11.959C91.3492 11.737 91.5712 11.563 91.8352 11.437C92.1052 11.305 92.4172 11.239 92.7712 11.239C92.8912 11.239 93.0202 11.251 93.1582 11.275C93.2962 11.299 93.4342 11.341 93.5722 11.401C93.7102 11.455 93.8392 11.53 93.9592 11.626C94.0852 11.716 94.1902 11.83 94.2742 11.968H94.2922V9.574H95.0572V16ZM99.2971 13.678C99.2971 13.96 99.3331 14.212 99.4051 14.434C99.4831 14.65 99.5881 14.833 99.7201 14.983C99.8521 15.127 100.005 15.238 100.179 15.316C100.359 15.394 100.548 15.433 100.746 15.433C100.944 15.433 101.13 15.394 101.304 15.316C101.484 15.238 101.64 15.127 101.772 14.983C101.904 14.833 102.006 14.65 102.078 14.434C102.156 14.212 102.195 13.96 102.195 13.678C102.195 13.396 102.156 13.147 102.078 12.931C102.006 12.709 101.904 12.523 101.772 12.373C101.64 12.223 101.484 12.109 101.304 12.031C101.13 11.953 100.944 11.914 100.746 11.914C100.548 11.914 100.359 11.953 100.179 12.031C100.005 12.109 99.8521 12.223 99.7201 12.373C99.5881 12.523 99.4831 12.709 99.4051 12.931C99.3331 13.147 99.2971 13.396 99.2971 13.678ZM98.4871 13.678C98.4871 13.336 98.5351 13.018 98.6311 12.724C98.7271 12.424 98.8711 12.166 99.0631 11.95C99.2551 11.728 99.4921 11.554 99.7741 11.428C100.056 11.302 100.38 11.239 100.746 11.239C101.118 11.239 101.442 11.302 101.718 11.428C102 11.554 102.237 11.728 102.429 11.95C102.621 12.166 102.765 12.424 102.861 12.724C102.957 13.018 103.005 13.336 103.005 13.678C103.005 14.02 102.957 14.338 102.861 14.632C102.765 14.926 102.621 15.184 102.429 15.406C102.237 15.622 102 15.793 101.718 15.919C101.442 16.039 101.118 16.099 100.746 16.099C100.38 16.099 100.056 16.039 99.7741 15.919C99.4921 15.793 99.2551 15.622 99.0631 15.406C98.8711 15.184 98.7271 14.926 98.6311 14.632C98.5351 14.338 98.4871 14.02 98.4871 13.678ZM103.907 11.347H104.627V12.085H104.645C104.963 11.521 105.467 11.239 106.157 11.239C106.463 11.239 106.718 11.281 106.922 11.365C107.126 11.449 107.291 11.566 107.417 11.716C107.543 11.866 107.63 12.046 107.678 12.256C107.732 12.46 107.759 12.688 107.759 12.94V16H106.994V12.85C106.994 12.562 106.91 12.334 106.742 12.166C106.574 11.998 106.343 11.914 106.049 11.914C105.815 11.914 105.611 11.95 105.437 12.022C105.269 12.094 105.128 12.196 105.014 12.328C104.9 12.46 104.813 12.616 104.753 12.796C104.699 12.97 104.672 13.162 104.672 13.372V16H103.907V11.347ZM112.475 11.347H113.402V12.022H112.475V14.911C112.475 15.001 112.481 15.073 112.493 15.127C112.511 15.181 112.541 15.223 112.583 15.253C112.625 15.283 112.682 15.304 112.754 15.316C112.832 15.322 112.931 15.325 113.051 15.325H113.402V16H112.817C112.619 16 112.448 15.988 112.304 15.964C112.166 15.934 112.052 15.883 111.962 15.811C111.878 15.739 111.815 15.637 111.773 15.505C111.731 15.373 111.71 15.199 111.71 14.983V12.022H110.918V11.347H111.71V9.952H112.475V11.347ZM114.252 9.574H115.017V12.031H115.035C115.095 11.887 115.179 11.767 115.287 11.671C115.395 11.569 115.515 11.488 115.647 11.428C115.785 11.362 115.926 11.314 116.07 11.284C116.22 11.254 116.364 11.239 116.502 11.239C116.808 11.239 117.063 11.281 117.267 11.365C117.471 11.449 117.636 11.566 117.762 11.716C117.888 11.866 117.975 12.046 118.023 12.256C118.077 12.46 118.104 12.688 118.104 12.94V16H117.339V12.85C117.339 12.562 117.255 12.334 117.087 12.166C116.919 11.998 116.688 11.914 116.394 11.914C116.16 11.914 115.956 11.95 115.782 12.022C115.614 12.094 115.473 12.196 115.359 12.328C115.245 12.46 115.158 12.616 115.098 12.796C115.044 12.97 115.017 13.162 115.017 13.372V16H114.252V9.574ZM122.484 13.228C122.472 13.048 122.43 12.877 122.358 12.715C122.292 12.553 122.199 12.415 122.079 12.301C121.965 12.181 121.827 12.088 121.665 12.022C121.509 11.95 121.335 11.914 121.143 11.914C120.945 11.914 120.765 11.95 120.603 12.022C120.447 12.088 120.312 12.181 120.198 12.301C120.084 12.421 119.994 12.562 119.928 12.724C119.862 12.88 119.823 13.048 119.811 13.228H122.484ZM123.222 14.524C123.12 15.046 122.895 15.439 122.547 15.703C122.199 15.967 121.761 16.099 121.233 16.099C120.861 16.099 120.537 16.039 120.261 15.919C119.991 15.799 119.763 15.631 119.577 15.415C119.391 15.199 119.25 14.941 119.154 14.641C119.064 14.341 119.013 14.014 119.001 13.66C119.001 13.306 119.055 12.982 119.163 12.688C119.271 12.394 119.421 12.139 119.613 11.923C119.811 11.707 120.042 11.539 120.306 11.419C120.576 11.299 120.87 11.239 121.188 11.239C121.602 11.239 121.944 11.326 122.214 11.5C122.49 11.668 122.709 11.884 122.871 12.148C123.039 12.412 123.153 12.7 123.213 13.012C123.279 13.324 123.306 13.621 123.294 13.903H119.811C119.805 14.107 119.829 14.302 119.883 14.488C119.937 14.668 120.024 14.83 120.144 14.974C120.264 15.112 120.417 15.223 120.603 15.307C120.789 15.391 121.008 15.433 121.26 15.433C121.584 15.433 121.848 15.358 122.052 15.208C122.262 15.058 122.4 14.83 122.466 14.524H123.222Z" fill="black"/>
<path d="M58.073 23.434H60.6L65.825 37H63.279L62.006 33.409H56.591L55.318 37H52.867L58.073 23.434ZM57.237 31.604H61.379L59.346 25.771H59.289L57.237 31.604ZM66.8699 27.177H68.9219V28.507H68.9599C69.2639 27.937 69.6882 27.5317 70.2329 27.291C70.7775 27.0377 71.3665 26.911 71.9999 26.911C72.7725 26.911 73.4439 27.0503 74.0139 27.329C74.5965 27.595 75.0779 27.9687 75.4579 28.45C75.8379 28.9187 76.1229 29.4697 76.3129 30.103C76.5029 30.7363 76.5979 31.414 76.5979 32.136C76.5979 32.7947 76.5092 33.4343 76.3319 34.055C76.1672 34.6757 75.9075 35.2267 75.5529 35.708C75.2109 36.1767 74.7739 36.5567 74.2419 36.848C73.7099 37.1267 73.0829 37.266 72.3609 37.266C72.0442 37.266 71.7275 37.2343 71.4109 37.171C71.0942 37.1203 70.7902 37.0317 70.4989 36.905C70.2075 36.7783 69.9352 36.62 69.6819 36.43C69.4412 36.2273 69.2385 35.993 69.0739 35.727H69.0359V40.629H66.8699V27.177ZM74.4319 32.098C74.4319 31.6547 74.3749 31.224 74.2609 30.806C74.1469 30.388 73.9759 30.0207 73.7479 29.704C73.5199 29.3747 73.2349 29.115 72.8929 28.925C72.5509 28.7223 72.1582 28.621 71.7149 28.621C70.8029 28.621 70.1125 28.9377 69.6439 29.571C69.1879 30.2043 68.9599 31.0467 68.9599 32.098C68.9599 32.592 69.0169 33.0543 69.1309 33.485C69.2575 33.903 69.4412 34.264 69.6819 34.568C69.9225 34.872 70.2075 35.1127 70.5369 35.29C70.8789 35.4673 71.2715 35.556 71.7149 35.556C72.2089 35.556 72.6269 35.4547 72.9689 35.252C73.3109 35.0493 73.5895 34.7897 73.8049 34.473C74.0329 34.1437 74.1912 33.7763 74.2799 33.371C74.3812 32.953 74.4319 32.5287 74.4319 32.098ZM78.4851 27.177H80.5371V28.507H80.5751C80.8791 27.937 81.3034 27.5317 81.8481 27.291C82.3928 27.0377 82.9818 26.911 83.6151 26.911C84.3878 26.911 85.0591 27.0503 85.6291 27.329C86.2118 27.595 86.6931 27.9687 87.0731 28.45C87.4531 28.9187 87.7381 29.4697 87.9281 30.103C88.1181 30.7363 88.2131 31.414 88.2131 32.136C88.2131 32.7947 88.1244 33.4343 87.9471 34.055C87.7824 34.6757 87.5228 35.2267 87.1681 35.708C86.8261 36.1767 86.3891 36.5567 85.8571 36.848C85.3251 37.1267 84.6981 37.266 83.9761 37.266C83.6594 37.266 83.3428 37.2343 83.0261 37.171C82.7094 37.1203 82.4054 37.0317 82.1141 36.905C81.8228 36.7783 81.5504 36.62 81.2971 36.43C81.0564 36.2273 80.8538 35.993 80.6891 35.727H80.6511V40.629H78.4851V27.177ZM86.0471 32.098C86.0471 31.6547 85.9901 31.224 85.8761 30.806C85.7621 30.388 85.5911 30.0207 85.3631 29.704C85.1351 29.3747 84.8501 29.115 84.5081 28.925C84.1661 28.7223 83.7734 28.621 83.3301 28.621C82.4181 28.621 81.7278 28.9377 81.2591 29.571C80.8031 30.2043 80.5751 31.0467 80.5751 32.098C80.5751 32.592 80.6321 33.0543 80.7461 33.485C80.8728 33.903 81.0564 34.264 81.2971 34.568C81.5378 34.872 81.8228 35.1127 82.1521 35.29C82.4941 35.4673 82.8868 35.556 83.3301 35.556C83.8241 35.556 84.2421 35.4547 84.5841 35.252C84.9261 35.0493 85.2048 34.7897 85.4201 34.473C85.6481 34.1437 85.8064 33.7763 85.8951 33.371C85.9964 32.953 86.0471 32.5287 86.0471 32.098ZM97.1934 32.478C97.1934 32.9973 97.2821 33.4407 97.4594 33.808C97.6367 34.1753 97.8837 34.4793 98.2004 34.72C98.5171 34.948 98.8781 35.119 99.2834 35.233C99.7014 35.3343 100.151 35.385 100.632 35.385C101.152 35.385 101.595 35.328 101.962 35.214C102.33 35.0873 102.627 34.929 102.855 34.739C103.083 34.549 103.248 34.3337 103.349 34.093C103.451 33.8397 103.501 33.5863 103.501 33.333C103.501 32.8137 103.381 32.4337 103.14 32.193C102.912 31.9397 102.659 31.7623 102.38 31.661C101.899 31.4837 101.335 31.319 100.689 31.167C100.056 31.0023 99.2707 30.7933 98.3334 30.54C97.7507 30.388 97.2631 30.1917 96.8704 29.951C96.4904 29.6977 96.1864 29.419 95.9584 29.115C95.7304 28.811 95.5657 28.488 95.4644 28.146C95.3757 27.804 95.3314 27.4557 95.3314 27.101C95.3314 26.417 95.4707 25.828 95.7494 25.334C96.0407 24.8273 96.4207 24.4093 96.8894 24.08C97.3581 23.7507 97.8901 23.51 98.4854 23.358C99.0807 23.1933 99.6824 23.111 100.29 23.111C101 23.111 101.665 23.206 102.285 23.396C102.919 23.5733 103.47 23.8457 103.938 24.213C104.42 24.5803 104.8 25.0363 105.078 25.581C105.357 26.113 105.496 26.7337 105.496 27.443H103.121C103.058 26.569 102.76 25.9547 102.228 25.6C101.696 25.2327 101.019 25.049 100.195 25.049C99.9167 25.049 99.6317 25.0807 99.3404 25.144C99.0491 25.1947 98.7831 25.2897 98.5424 25.429C98.3017 25.5557 98.0991 25.733 97.9344 25.961C97.7824 26.189 97.7064 26.474 97.7064 26.816C97.7064 27.2973 97.8521 27.6773 98.1434 27.956C98.4474 28.222 98.8401 28.4247 99.3214 28.564C99.3721 28.5767 99.5684 28.6337 99.9104 28.735C100.265 28.8237 100.658 28.925 101.088 29.039C101.519 29.153 101.937 29.267 102.342 29.381C102.76 29.4823 103.058 29.5583 103.235 29.609C103.679 29.7483 104.065 29.9383 104.394 30.179C104.724 30.4197 104.996 30.6983 105.211 31.015C105.439 31.319 105.604 31.6483 105.705 32.003C105.819 32.3577 105.876 32.7123 105.876 33.067C105.876 33.827 105.718 34.4793 105.401 35.024C105.097 35.556 104.692 35.993 104.185 36.335C103.679 36.677 103.102 36.924 102.456 37.076C101.81 37.2407 101.152 37.323 100.48 37.323C99.7077 37.323 98.9794 37.228 98.2954 37.038C97.6114 36.848 97.0161 36.5567 96.5094 36.164C96.0027 35.7713 95.5974 35.271 95.2934 34.663C94.9894 34.0423 94.8311 33.314 94.8184 32.478H97.1934ZM106.664 27.177H108.298V24.232H110.464V27.177H112.421V28.792H110.464V34.036C110.464 34.264 110.47 34.4603 110.483 34.625C110.508 34.7897 110.552 34.929 110.616 35.043C110.692 35.157 110.799 35.2457 110.939 35.309C111.078 35.3597 111.268 35.385 111.509 35.385C111.661 35.385 111.813 35.385 111.965 35.385C112.117 35.3723 112.269 35.347 112.421 35.309V36.981C112.18 37.0063 111.946 37.0317 111.718 37.057C111.49 37.0823 111.255 37.095 111.015 37.095C110.445 37.095 109.982 37.0443 109.628 36.943C109.286 36.829 109.013 36.6707 108.811 36.468C108.621 36.2527 108.488 35.9867 108.412 35.67C108.348 35.3533 108.31 34.9923 108.298 34.587V28.792H106.664V27.177ZM118.482 37.266C117.697 37.266 116.994 37.1393 116.373 36.886C115.765 36.62 115.246 36.259 114.815 35.803C114.397 35.347 114.074 34.8023 113.846 34.169C113.631 33.5357 113.523 32.839 113.523 32.079C113.523 31.3317 113.631 30.6413 113.846 30.008C114.074 29.3747 114.397 28.83 114.815 28.374C115.246 27.918 115.765 27.5633 116.373 27.31C116.994 27.044 117.697 26.911 118.482 26.911C119.267 26.911 119.964 27.044 120.572 27.31C121.193 27.5633 121.712 27.918 122.13 28.374C122.561 28.83 122.884 29.3747 123.099 30.008C123.327 30.6413 123.441 31.3317 123.441 32.079C123.441 32.839 123.327 33.5357 123.099 34.169C122.884 34.8023 122.561 35.347 122.13 35.803C121.712 36.259 121.193 36.62 120.572 36.886C119.964 37.1393 119.267 37.266 118.482 37.266ZM118.482 35.556C118.963 35.556 119.381 35.4547 119.736 35.252C120.091 35.0493 120.382 34.7833 120.61 34.454C120.838 34.1247 121.003 33.7573 121.104 33.352C121.218 32.934 121.275 32.5097 121.275 32.079C121.275 31.661 121.218 31.243 121.104 30.825C121.003 30.407 120.838 30.0397 120.61 29.723C120.382 29.3937 120.091 29.1277 119.736 28.925C119.381 28.7223 118.963 28.621 118.482 28.621C118.001 28.621 117.583 28.7223 117.228 28.925C116.873 29.1277 116.582 29.3937 116.354 29.723C116.126 30.0397 115.955 30.407 115.841 30.825C115.74 31.243 115.689 31.661 115.689 32.079C115.689 32.5097 115.74 32.934 115.841 33.352C115.955 33.7573 116.126 34.1247 116.354 34.454C116.582 34.7833 116.873 35.0493 117.228 35.252C117.583 35.4547 118.001 35.556 118.482 35.556ZM125.242 27.177H127.275V29.077H127.313C127.376 28.811 127.496 28.5513 127.674 28.298C127.864 28.0447 128.085 27.8167 128.339 27.614C128.605 27.3987 128.896 27.2277 129.213 27.101C129.529 26.9743 129.852 26.911 130.182 26.911C130.435 26.911 130.606 26.9173 130.695 26.93C130.796 26.9427 130.897 26.9553 130.999 26.968V29.058C130.847 29.0327 130.688 29.0137 130.524 29.001C130.372 28.9757 130.22 28.963 130.068 28.963C129.7 28.963 129.352 29.039 129.023 29.191C128.706 29.3303 128.427 29.5457 128.187 29.837C127.946 30.1157 127.756 30.464 127.617 30.882C127.477 31.3 127.408 31.7813 127.408 32.326V37H125.242V27.177ZM138.332 31.224C138.307 30.882 138.231 30.5527 138.104 30.236C137.99 29.9193 137.826 29.647 137.61 29.419C137.408 29.1783 137.154 28.9883 136.85 28.849C136.559 28.697 136.23 28.621 135.862 28.621C135.482 28.621 135.134 28.6907 134.817 28.83C134.513 28.9567 134.247 29.1403 134.019 29.381C133.804 29.609 133.627 29.8813 133.487 30.198C133.361 30.5147 133.291 30.8567 133.278 31.224H138.332ZM133.278 32.649C133.278 33.029 133.329 33.3963 133.43 33.751C133.544 34.1057 133.709 34.416 133.924 34.682C134.14 34.948 134.412 35.1633 134.741 35.328C135.071 35.48 135.463 35.556 135.919 35.556C136.553 35.556 137.059 35.423 137.439 35.157C137.832 34.8783 138.123 34.4667 138.313 33.922H140.365C140.251 34.454 140.055 34.929 139.776 35.347C139.498 35.765 139.162 36.1197 138.769 36.411C138.377 36.6897 137.933 36.8987 137.439 37.038C136.958 37.19 136.451 37.266 135.919 37.266C135.147 37.266 134.463 37.1393 133.867 36.886C133.272 36.6327 132.765 36.278 132.347 35.822C131.942 35.366 131.632 34.8213 131.416 34.188C131.214 33.5547 131.112 32.858 131.112 32.098C131.112 31.4013 131.22 30.7427 131.435 30.122C131.663 29.4887 131.98 28.9377 132.385 28.469C132.803 27.9877 133.304 27.6077 133.886 27.329C134.469 27.0503 135.128 26.911 135.862 26.911C136.635 26.911 137.325 27.0757 137.933 27.405C138.554 27.7217 139.067 28.146 139.472 28.678C139.878 29.21 140.169 29.8243 140.346 30.521C140.536 31.205 140.587 31.9143 140.498 32.649H133.278Z" fill="black"/>
<path d="M34.375 25.3585C34.3443 21.9475 37.1722 20.288 37.3015 20.2108C35.7 17.8792 33.2176 17.5607 32.3453 17.5353C30.2604 17.3162 28.238 18.7809 27.176 18.7809C26.0928 18.7809 24.4573 17.5564 22.6946 17.5924C20.4264 17.6273 18.3044 18.9386 17.1406 20.9749C14.7388 25.1268 16.5301 31.2281 18.8312 34.5841C19.9823 36.2288 21.3273 38.0629 23.0879 37.9983C24.8102 37.9285 25.4536 36.903 27.5321 36.903C29.5916 36.903 30.1957 37.9983 31.9913 37.9571C33.8398 37.9285 35.0036 36.3061 36.1144 34.6476C37.4446 32.7648 37.9788 30.9085 38 30.8132C37.9576 30.7984 34.4111 29.4459 34.375 25.3585ZM30.9833 15.3276C31.9096 14.1708 32.5435 12.597 32.3675 11C31.0267 11.0593 29.3499 11.9261 28.3843 13.0574C27.53 14.0544 26.7669 15.6885 26.964 17.2252C28.4702 17.3374 30.0166 16.4663 30.9833 15.3276Z" fill="black"/>
</svg>
