<svg width="160" height="48" viewBox="0 0 160 48" fill="none" xmlns="http://www.w3.org/2000/svg">
<rect width="160" height="48" rx="8" fill="black"/>
<path d="M60.445 12.545C60.271 12.179 60.019 11.897 59.689 11.699C59.359 11.495 58.975 11.393 58.537 11.393C58.099 11.393 57.703 11.495 57.349 11.699C57.001 11.897 56.725 12.185 56.521 12.563C56.323 12.935 56.224 13.367 56.224 13.859C56.224 14.351 56.323 14.783 56.521 15.155C56.725 15.527 57.001 15.815 57.349 16.019C57.703 16.217 58.099 16.316 58.537 16.316C59.149 16.316 59.653 16.133 60.049 15.767C60.445 15.401 60.676 14.906 60.742 14.282H58.24V13.616H61.615V14.246C61.567 14.762 61.405 15.236 61.129 15.668C60.853 16.094 60.49 16.433 60.04 16.685C59.59 16.931 59.089 17.054 58.537 17.054C57.955 17.054 57.424 16.919 56.944 16.649C56.464 16.373 56.083 15.992 55.801 15.506C55.525 15.02 55.387 14.471 55.387 13.859C55.387 13.247 55.525 12.698 55.801 12.212C56.083 11.72 56.464 11.339 56.944 11.069C57.424 10.793 57.955 10.655 58.537 10.655C59.203 10.655 59.791 10.82 60.301 11.15C60.817 11.48 61.192 11.945 61.426 12.545H60.445ZM63.5169 11.393V13.49H65.8029V14.165H63.5169V16.325H66.0729V17H62.6979V10.718H66.0729V11.393H63.5169ZM71.1731 10.727V11.393H69.4631V17H68.6441V11.393H66.9251V10.727H71.1731ZM75.3997 10.727V17H74.5807V10.727H75.3997ZM80.6565 10.727V11.393H78.9465V17H78.1275V11.393H76.4085V10.727H80.6565ZM86.9081 17.063C86.3261 17.063 85.7951 16.928 85.3151 16.658C84.8351 16.382 84.4541 16.001 84.1721 15.515C83.8961 15.023 83.7581 14.471 83.7581 13.859C83.7581 13.247 83.8961 12.698 84.1721 12.212C84.4541 11.72 84.8351 11.339 85.3151 11.069C85.7951 10.793 86.3261 10.655 86.9081 10.655C87.4961 10.655 88.0301 10.793 88.5101 11.069C88.9901 11.339 89.3681 11.717 89.6441 12.203C89.9201 12.689 90.0581 13.241 90.0581 13.859C90.0581 14.477 89.9201 15.029 89.6441 15.515C89.3681 16.001 88.9901 16.382 88.5101 16.658C88.0301 16.928 87.4961 17.063 86.9081 17.063ZM86.9081 16.352C87.3461 16.352 87.7391 16.25 88.0871 16.046C88.4411 15.842 88.7171 15.551 88.9151 15.173C89.1191 14.795 89.2211 14.357 89.2211 13.859C89.2211 13.355 89.1191 12.917 88.9151 12.545C88.7171 12.167 88.4441 11.876 88.0961 11.672C87.7481 11.468 87.3521 11.366 86.9081 11.366C86.4641 11.366 86.0681 11.468 85.7201 11.672C85.3721 11.876 85.0961 12.167 84.8921 12.545C84.6941 12.917 84.5951 13.355 84.5951 13.859C84.5951 14.357 84.6941 14.795 84.8921 15.173C85.0961 15.551 85.3721 15.842 85.7201 16.046C86.0741 16.25 86.4701 16.352 86.9081 16.352ZM96.0713 17H95.2523L91.9583 12.005V17H91.1393V10.718H91.9583L95.2523 15.704V10.718H96.0713V17Z" fill="white"/>
<path d="M62.68 28.08C62.3707 27.4293 61.9227 26.928 61.336 26.576C60.7493 26.2133 60.0667 26.032 59.288 26.032C58.5093 26.032 57.8053 26.2133 57.176 26.576C56.5573 26.928 56.0667 27.44 55.704 28.112C55.352 28.7733 55.176 29.5413 55.176 30.416C55.176 31.2907 55.352 32.0587 55.704 32.72C56.0667 33.3813 56.5573 33.8933 57.176 34.256C57.8053 34.608 58.5093 34.784 59.288 34.784C60.376 34.784 61.272 34.4587 61.976 33.808C62.68 33.1573 63.0907 32.2773 63.208 31.168H58.76V29.984H64.76V31.104C64.6747 32.0213 64.3867 32.864 63.896 33.632C63.4053 34.3893 62.76 34.992 61.96 35.44C61.16 35.8773 60.2693 36.096 59.288 36.096C58.2533 36.096 57.3093 35.856 56.456 35.376C55.6027 34.8853 54.9253 34.208 54.424 33.344C53.9333 32.48 53.688 31.504 53.688 30.416C53.688 29.328 53.9333 28.352 54.424 27.488C54.9253 26.6133 55.6027 25.936 56.456 25.456C57.3093 24.9653 58.2533 24.72 59.288 24.72C60.472 24.72 61.5173 25.0133 62.424 25.6C63.3413 26.1867 64.008 27.0133 64.424 28.08H62.68ZM70.5091 36.144C69.6878 36.144 68.9411 35.9573 68.2691 35.584C67.6078 35.2107 67.0851 34.6827 66.7011 34C66.3278 33.3067 66.1411 32.5067 66.1411 31.6C66.1411 30.704 66.3331 29.9147 66.7171 29.232C67.1118 28.5387 67.6451 28.0107 68.3171 27.648C68.9891 27.2747 69.7411 27.088 70.5731 27.088C71.4051 27.088 72.1571 27.2747 72.8291 27.648C73.5011 28.0107 74.0291 28.5333 74.4131 29.216C74.8078 29.8987 75.0051 30.6933 75.0051 31.6C75.0051 32.5067 74.8025 33.3067 74.3971 34C74.0025 34.6827 73.4638 35.2107 72.7811 35.584C72.0985 35.9573 71.3411 36.144 70.5091 36.144ZM70.5091 34.864C71.0318 34.864 71.5225 34.7413 71.9811 34.496C72.4398 34.2507 72.8078 33.8827 73.0851 33.392C73.3731 32.9013 73.5171 32.304 73.5171 31.6C73.5171 30.896 73.3785 30.2987 73.1011 29.808C72.8238 29.3173 72.4611 28.9547 72.0131 28.72C71.5651 28.4747 71.0798 28.352 70.5571 28.352C70.0238 28.352 69.5331 28.4747 69.0851 28.72C68.6478 28.9547 68.2958 29.3173 68.0291 29.808C67.7625 30.2987 67.6291 30.896 67.6291 31.6C67.6291 32.3147 67.7571 32.9173 68.0131 33.408C68.2798 33.8987 68.6318 34.2667 69.0691 34.512C69.5065 34.7467 69.9865 34.864 70.5091 34.864ZM80.7435 36.144C79.9222 36.144 79.1755 35.9573 78.5035 35.584C77.8422 35.2107 77.3195 34.6827 76.9355 34C76.5622 33.3067 76.3755 32.5067 76.3755 31.6C76.3755 30.704 76.5675 29.9147 76.9515 29.232C77.3462 28.5387 77.8795 28.0107 78.5515 27.648C79.2235 27.2747 79.9755 27.088 80.8075 27.088C81.6395 27.088 82.3915 27.2747 83.0635 27.648C83.7355 28.0107 84.2635 28.5333 84.6475 29.216C85.0422 29.8987 85.2395 30.6933 85.2395 31.6C85.2395 32.5067 85.0368 33.3067 84.6315 34C84.2368 34.6827 83.6982 35.2107 83.0155 35.584C82.3328 35.9573 81.5755 36.144 80.7435 36.144ZM80.7435 34.864C81.2662 34.864 81.7568 34.7413 82.2155 34.496C82.6742 34.2507 83.0422 33.8827 83.3195 33.392C83.6075 32.9013 83.7515 32.304 83.7515 31.6C83.7515 30.896 83.6128 30.2987 83.3355 29.808C83.0582 29.3173 82.6955 28.9547 82.2475 28.72C81.7995 28.4747 81.3142 28.352 80.7915 28.352C80.2582 28.352 79.7675 28.4747 79.3195 28.72C78.8822 28.9547 78.5302 29.3173 78.2635 29.808C77.9968 30.2987 77.8635 30.896 77.8635 31.6C77.8635 32.3147 77.9915 32.9173 78.2475 33.408C78.5142 33.8987 78.8662 34.2667 79.3035 34.512C79.7408 34.7467 80.2208 34.864 80.7435 34.864ZM90.7699 27.088C91.5272 27.088 92.1885 27.2533 92.7539 27.584C93.3299 27.9147 93.7565 28.3307 94.0339 28.832V27.232H95.5059V36.192C95.5059 36.992 95.3352 37.7013 94.9939 38.32C94.6525 38.9493 94.1619 39.44 93.5219 39.792C92.8925 40.144 92.1565 40.32 91.3139 40.32C90.1619 40.32 89.2019 40.048 88.4339 39.504C87.6659 38.96 87.2125 38.2187 87.0739 37.28H88.5139C88.6739 37.8133 89.0045 38.24 89.5059 38.56C90.0072 38.8907 90.6099 39.056 91.3139 39.056C92.1139 39.056 92.7645 38.8053 93.2659 38.304C93.7779 37.8027 94.0339 37.0987 94.0339 36.192V34.352C93.7459 34.864 93.3192 35.2907 92.7539 35.632C92.1885 35.9733 91.5272 36.144 90.7699 36.144C89.9912 36.144 89.2819 35.952 88.6419 35.568C88.0125 35.184 87.5165 34.6453 87.1539 33.952C86.7912 33.2587 86.6099 32.4693 86.6099 31.584C86.6099 30.688 86.7912 29.904 87.1539 29.232C87.5165 28.5493 88.0125 28.0213 88.6419 27.648C89.2819 27.2747 89.9912 27.088 90.7699 27.088ZM94.0339 31.6C94.0339 30.9387 93.9005 30.3627 93.6339 29.872C93.3672 29.3813 93.0045 29.008 92.5459 28.752C92.0979 28.4853 91.6019 28.352 91.0579 28.352C90.5139 28.352 90.0179 28.48 89.5699 28.736C89.1219 28.992 88.7645 29.3653 88.4979 29.856C88.2312 30.3467 88.0979 30.9227 88.0979 31.584C88.0979 32.256 88.2312 32.8427 88.4979 33.344C88.7645 33.8347 89.1219 34.2133 89.5699 34.48C90.0179 34.736 90.5139 34.864 91.0579 34.864C91.6019 34.864 92.0979 34.736 92.5459 34.48C93.0045 34.2133 93.3672 33.8347 93.6339 33.344C93.9005 32.8427 94.0339 32.2613 94.0339 31.6ZM99.4224 24.16V36H97.9664V24.16H99.4224ZM109.904 31.28C109.904 31.5573 109.888 31.8507 109.856 32.16H102.848C102.901 33.024 103.195 33.7013 103.728 34.192C104.272 34.672 104.928 34.912 105.696 34.912C106.325 34.912 106.848 34.768 107.264 34.48C107.691 34.1813 107.989 33.7867 108.16 33.296H109.728C109.493 34.1387 109.024 34.8267 108.32 35.36C107.616 35.8827 106.741 36.144 105.696 36.144C104.864 36.144 104.117 35.9573 103.456 35.584C102.805 35.2107 102.293 34.6827 101.92 34C101.547 33.3067 101.36 32.5067 101.36 31.6C101.36 30.6933 101.541 29.8987 101.904 29.216C102.267 28.5333 102.773 28.0107 103.424 27.648C104.085 27.2747 104.843 27.088 105.696 27.088C106.528 27.088 107.264 27.2693 107.904 27.632C108.544 27.9947 109.035 28.496 109.376 29.136C109.728 29.7653 109.904 30.48 109.904 31.28ZM108.4 30.976C108.4 30.4213 108.277 29.9467 108.032 29.552C107.787 29.1467 107.451 28.8427 107.024 28.64C106.608 28.4267 106.144 28.32 105.632 28.32C104.896 28.32 104.267 28.5547 103.744 29.024C103.232 29.4933 102.939 30.144 102.864 30.976H108.4ZM123.547 28.112C123.547 29.04 123.227 29.8133 122.587 30.432C121.958 31.04 120.993 31.344 119.691 31.344H117.547V36H116.091V24.848H119.691C120.95 24.848 121.905 25.152 122.555 25.76C123.217 26.368 123.547 27.152 123.547 28.112ZM119.691 30.144C120.502 30.144 121.099 29.968 121.483 29.616C121.867 29.264 122.059 28.7627 122.059 28.112C122.059 26.736 121.27 26.048 119.691 26.048H117.547V30.144H119.691ZM126.813 24.16V36H125.357V24.16H126.813ZM128.751 31.584C128.751 30.688 128.932 29.904 129.295 29.232C129.657 28.5493 130.153 28.0213 130.783 27.648C131.423 27.2747 132.132 27.088 132.911 27.088C133.679 27.088 134.345 27.2533 134.911 27.584C135.476 27.9147 135.897 28.3307 136.175 28.832V27.232H137.647V36H136.175V34.368C135.887 34.88 135.455 35.3067 134.879 35.648C134.313 35.9787 133.652 36.144 132.895 36.144C132.116 36.144 131.412 35.952 130.783 35.568C130.153 35.184 129.657 34.6453 129.295 33.952C128.932 33.2587 128.751 32.4693 128.751 31.584ZM136.175 31.6C136.175 30.9387 136.041 30.3627 135.775 29.872C135.508 29.3813 135.145 29.008 134.687 28.752C134.239 28.4853 133.743 28.352 133.199 28.352C132.655 28.352 132.159 28.48 131.711 28.736C131.263 28.992 130.905 29.3653 130.639 29.856C130.372 30.3467 130.239 30.9227 130.239 31.584C130.239 32.256 130.372 32.8427 130.639 33.344C130.905 33.8347 131.263 34.2133 131.711 34.48C132.159 34.736 132.655 34.864 133.199 34.864C133.743 34.864 134.239 34.736 134.687 34.48C135.145 34.2133 135.508 33.8347 135.775 33.344C136.041 32.8427 136.175 32.2613 136.175 31.6ZM147.659 27.232L142.379 40.128H140.875L142.603 35.904L139.067 27.232H140.683L143.435 34.336L146.155 27.232H147.659Z" fill="white"/>
<path d="M37.9991 23.9994C37.9991 24.7494 37.5791 25.4094 36.9691 25.7494L31.7691 28.6394L27.3691 23.9994L31.7691 19.3594L36.9691 22.2494C37.5791 22.5894 37.9991 23.2494 37.9991 23.9994Z" fill="#FFC107"/>
<path d="M27.37 23.9994L16.57 35.3894C16.21 35.0294 16 34.5394 16 33.9994V13.9994C16 13.4594 16.21 12.9694 16.57 12.6094L27.37 23.9994Z" fill="#03A9F4"/>
<path d="M27.3703 24L31.7703 28.64L18.9703 35.75C18.6803 35.91 18.3503 36 18.0003 36C17.4403 36 16.9303 35.77 16.5703 35.39L27.3703 24Z" fill="#F44336"/>
<path d="M31.7703 19.36L27.3703 24L16.5703 12.61C16.9303 12.23 17.4403 12 18.0003 12C18.3503 12 18.6803 12.09 18.9703 12.25L31.7703 19.36Z" fill="#4CAF50"/>
</svg>
